<svg width="30" height="23" viewBox="0 0 30 23" fill="none" xmlns="http://www.w3.org/2000/svg">
<mask id="path-1-outside-1_1201_13" maskUnits="userSpaceOnUse" x="-12" y="-22" width="51" height="54" fill="black">
<rect fill="white" x="-12" y="-22" width="51" height="54"/>
<path d="M15.9978 18.744H7.10175L5.62975 23H0.92575L8.95775 0.631998H14.1738L22.2058 23H17.4698L15.9978 18.744ZM14.7818 15.16L11.5498 5.816L8.31775 15.16H14.7818ZM29.688 0.664V23H25.208V0.664H29.688Z"/>
</mask>
<path d="M15.9978 18.744H7.10175L5.62975 23H0.92575L8.95775 0.631998H14.1738L22.2058 23H17.4698L15.9978 18.744ZM14.7818 15.16L11.5498 5.816L8.31775 15.16H14.7818ZM29.688 0.664V23H25.208V0.664H29.688Z" fill="white"/>
<path d="M15.9977 18.744L24.5034 15.8022L22.4081 9.744H15.9977V18.744ZM7.10175 18.744V9.744H0.691434L-1.40388 15.8022L7.10175 18.744ZM5.62975 23V32H12.0401L14.1354 25.9418L5.62975 23ZM0.92575 23L-7.54471 19.9584L-11.8687 32H0.92575V23ZM8.95775 0.631998V-8.368H2.62686L0.487295 -2.40961L8.95775 0.631998ZM14.1738 0.631998L22.6442 -2.40961L20.5046 -8.368H14.1738V0.631998ZM22.2057 23V32H35.0002L30.6762 19.9584L22.2057 23ZM17.4698 23L8.96412 25.9418L11.0594 32H17.4698V23ZM14.7817 15.16V24.16H27.4179L23.2873 12.218L14.7817 15.16ZM11.5498 5.816L20.0553 2.87401L11.5498 -21.7163L3.04418 2.87401L11.5498 5.816ZM8.31775 15.16L-0.187817 12.218L-4.31844 24.16H8.31775V15.16ZM15.9977 9.744H7.10175V27.744H15.9977V9.744ZM-1.40388 15.8022L-2.87588 20.0582L14.1354 25.9418L15.6074 21.6858L-1.40388 15.8022ZM5.62975 14H0.92575V32H5.62975V14ZM9.39621 26.0416L17.4282 3.67361L0.487295 -2.40961L-7.54471 19.9584L9.39621 26.0416ZM8.95775 9.632H14.1738V-8.368H8.95775V9.632ZM5.7033 3.67361L13.7353 26.0416L30.6762 19.9584L22.6442 -2.40961L5.7033 3.67361ZM22.2057 14H17.4698V32H22.2057V14ZM25.9754 20.0582L24.5034 15.8022L7.49212 21.6858L8.96412 25.9418L25.9754 20.0582ZM23.2873 12.218L20.0553 2.87401L3.04418 8.75799L6.27618 18.102L23.2873 12.218ZM3.04418 2.87401L-0.187817 12.218L16.8233 18.102L20.0553 8.75799L3.04418 2.87401ZM8.31775 24.16H14.7817V6.16H8.31775V24.16ZM29.688 0.664H38.688V-8.336H29.688V0.664ZM29.688 23V32H38.688V23H29.688ZM25.208 23H16.208V32H25.208V23ZM25.208 0.664V-8.336H16.208V0.664H25.208ZM20.688 0.664V23H38.688V0.664H20.688ZM29.688 14H25.208V32H29.688V14ZM34.208 23V0.664H16.208V23H34.208ZM25.208 9.664H29.688V-8.336H25.208V9.664Z" fill="black" mask="url(#path-1-outside-1_1201_13)"/>
</svg>
