<svg width="121" height="63" viewBox="0 0 121 63" fill="none" xmlns="http://www.w3.org/2000/svg">
<ellipse cx="34.5" cy="31.5001" rx="34.5" ry="31.5" fill="black"/>
<rect x="16" y="4.64099" width="8" height="64" transform="rotate(-35.4587 16 4.64099)" fill="white"/>
<rect x="47.3542" y="1.00012" width="8" height="64" transform="rotate(32.4651 47.3542 1.00012)" fill="white"/>
<mask id="path-4-outside-1_1201_65" maskUnits="userSpaceOnUse" x="67" y="4" width="51" height="54" fill="black">
<rect fill="white" x="67" y="4" width="51" height="54"/>
<path d="M94.9978 44.744H86.1018L84.6298 49H79.9258L87.9578 26.632H93.1738L101.206 49H96.4698L94.9978 44.744ZM93.7818 41.16L90.5498 31.816L87.3177 41.16H93.7818ZM108.688 26.664V49H104.208V26.664H108.688Z"/>
</mask>
<path d="M94.9978 44.744H86.1018L84.6298 49H79.9258L87.9578 26.632H93.1738L101.206 49H96.4698L94.9978 44.744ZM93.7818 41.16L90.5498 31.816L87.3177 41.16H93.7818ZM108.688 26.664V49H104.208V26.664H108.688Z" fill="white"/>
<path d="M94.9977 44.744L103.503 41.8022L101.408 35.744H94.9977V44.744ZM86.1017 44.744V35.744H79.6914L77.5961 41.8022L86.1017 44.744ZM84.6298 49V58H91.0401L93.1354 51.9418L84.6298 49ZM79.9257 49L71.4553 45.9584L67.1313 58H79.9257V49ZM87.9578 26.632V17.632H81.6269L79.4873 23.5904L87.9578 26.632ZM93.1738 26.632L101.644 23.5904L99.5046 17.632H93.1738V26.632ZM101.206 49V58H114L109.676 45.9584L101.206 49ZM96.4698 49L87.9641 51.9418L90.0594 58H96.4698V49ZM93.7817 41.16V50.16H106.418L102.287 38.218L93.7817 41.16ZM90.5498 31.816L99.0553 28.874L90.5498 4.28366L82.0442 28.874L90.5498 31.816ZM87.3177 41.16L78.8122 38.218L74.6816 50.16H87.3177V41.16ZM94.9977 35.744H86.1017V53.744H94.9977V35.744ZM77.5961 41.8022L76.1241 46.0582L93.1354 51.9418L94.6074 47.6858L77.5961 41.8022ZM84.6298 40H79.9257V58H84.6298V40ZM88.3962 52.0416L96.4282 29.6736L79.4873 23.5904L71.4553 45.9584L88.3962 52.0416ZM87.9578 35.632H93.1738V17.632H87.9578V35.632ZM84.7033 29.6736L92.7353 52.0416L109.676 45.9584L101.644 23.5904L84.7033 29.6736ZM101.206 40H96.4698V58H101.206V40ZM104.975 46.0582L103.503 41.8022L86.4921 47.6858L87.9641 51.9418L104.975 46.0582ZM102.287 38.218L99.0553 28.874L82.0442 34.758L85.2762 44.102L102.287 38.218ZM82.0442 28.874L78.8122 38.218L95.8233 44.102L99.0553 34.758L82.0442 28.874ZM87.3177 50.16H93.7817V32.16H87.3177V50.16ZM108.688 26.664H117.688V17.664H108.688V26.664ZM108.688 49V58H117.688V49H108.688ZM104.208 49H95.208V58H104.208V49ZM104.208 26.664V17.664H95.208V26.664H104.208ZM99.688 26.664V49H117.688V26.664H99.688ZM108.688 40H104.208V58H108.688V40ZM113.208 49V26.664H95.208V49H113.208ZM104.208 35.664H108.688V17.664H104.208V35.664Z" fill="black" mask="url(#path-4-outside-1_1201_65)"/>
</svg>
